{
  "accessors": [
    {
      "bufferView": 2,
      "componentType": 5126,
      "count": 21732,
      "max": [
        1442.794677734375,
        -877.4505615234375,
        507.85040283203125
      ],
      "min": [
        -329.7626953125,
        -1100.1275634765625,
        -14.320632934570312
      ],
      "type": "VEC3"
    },
    {
      "bufferView": 2,
      "byteOffset": 260784,
      "componentType": 5126,
      "count": 21732,
      "max": [
        1,
        1,
        1
      ],
      "min": [
        -1,
        -1,
        -1
      ],
      "type": "VEC3"
    },
    {
      "bufferView": 3,
      "componentType": 5126,
      "count": 21732,
      "max": [
        1,
        1,
        1,
        1
      ],
      "min": [
        -1,
        -1,
        -0.99999862909317017,
        -1
      ],
      "type": "VEC4"
    },
    {
      "bufferView": 3,
      "byteOffset": 347712,
      "componentType": 5126,
      "count": 21732,
      "max": [
        1,
        1,
        1,
        1
      ],
      "min": [
        1,
        1,
        1,
        1
      ],
      "type": "VEC4"
    },
    {
      "bufferView": 1,
      "componentType": 5126,
      "count": 21732,
      "max": [
        0.99500000476837158,
        0.99481797218322754
      ],
      "min": [
        0.004999999888241291,
        0.004999999888241291
      ],
      "type": "VEC2"
    },
    {
      "bufferView": 1,
      "byteOffset": 173856,
      "componentType": 5126,
      "count": 21732,
      "max": [
        0.99500000476837158,
        0.99481797218322754
      ],
      "min": [
        0.004999999888241291,
        0.004999999888241291
      ],
      "type": "VEC2"
    },
    {
      "bufferView": 0,
      "componentType": 5125,
      "count": 68928,
      "max": [
        21731
      ],
      "min": [
        0
      ],
      "type": "SCALAR"
    },
    {
      "bufferView": 2,
      "byteOffset": 521568,
      "componentType": 5126,
      "count": 2943,
      "max": [
        1528.3419189453125,
        -868.40557861328125,
        423.91110229492188
      ],
      "min": [
        472.02239990234375,
        -1100.1275634765625,
        -70.559860229492188
      ],
      "type": "VEC3"
    },
    {
      "bufferView": 2,
      "byteOffset": 556884,
      "componentType": 5126,
      "count": 2943,
      "max": [
        0.99999165534973145,
        1,
        1
      ],
      "min": [
        -1,
        -1,
        -1
      ],
      "type": "VEC3"
    },
    {
      "bufferView": 3,
      "byteOffset": 695424,
      "componentType": 5126,
      "count": 2943,
      "max": [
        1,
        1,
        1,
        1
      ],
      "min": [
        -1,
        -1,
        -0.9697834849357605,
        1
      ],
      "type": "VEC4"
    },
    {
      "bufferView": 3,
      "byteOffset": 742512,
      "componentType": 5126,
      "count": 2943,
      "max": [
        1,
        1,
        1,
        1
      ],
      "min": [
        1,
        1,
        1,
        1
      ],
      "type": "VEC4"
    },
    {
      "bufferView": 1,
      "byteOffset": 347712,
      "componentType": 5126,
      "count": 2943,
      "max": [
        0.95787042379379272,
        0.99500000476837158
      ],
      "min": [
        0.004999999888241291,
        0.004999999888241291
      ],
      "type": "VEC2"
    },
    {
      "bufferView": 1,
      "byteOffset": 371256,
      "componentType": 5126,
      "count": 2943,
      "max": [
        0.95787042379379272,
        0.99500000476837158
      ],
      "min": [
        0.004999999888241291,
        0.004999999888241291
      ],
      "type": "VEC2"
    },
    {
      "bufferView": 0,
      "byteOffset": 275712,
      "componentType": 5125,
      "count": 12108,
      "max": [
        2942
      ],
      "min": [
        0
      ],
      "type": "SCALAR"
    },
    {
      "bufferView": 2,
      "byteOffset": 592200,
      "componentType": 5126,
      "count": 3678,
      "max": [
        944.6715087890625,
        -868.40576171875,
        177.00497436523438
      ],
      "min": [
        -345.43304443359375,
        -1098.772705078125,
        -69.040679931640625
      ],
      "type": "VEC3"
    },
    {
      "bufferView": 2,
      "byteOffset": 636336,
      "componentType": 5126,
      "count": 3678,
      "max": [
        0.99999558925628662,
        1,
        0.99999821186065674
      ],
      "min": [
        -0.99999785423278809,
        -1,
        -0.99999988079071045
      ],
      "type": "VEC3"
    },
    {
      "bufferView": 3,
      "byteOffset": 789600,
      "componentType": 5126,
      "count": 3678,
      "max": [
        1,
        0.99182486534118652,
        1,
        1
      ],
      "min": [
        -1,
        -0.99338352680206299,
        -0.99999862909317017,
        1
      ],
      "type": "VEC4"
    },
    {
      "bufferView": 3,
      "byteOffset": 848448,
      "componentType": 5126,
      "count": 3678,
      "max": [
        1,
        1,
        1,
        1
      ],
      "min": [
        1,
        1,
        1,
        1
      ],
      "type": "VEC4"
    },
    {
      "bufferView": 1,
      "byteOffset": 394800,
      "componentType": 5126,
      "count": 3678,
      "max": [
        0.99500000476837158,
        0.99444776773452759
      ],
      "min": [
        0.004999999888241291,
        0.004999999888241291
      ],
      "type": "VEC2"
    },
    {
      "bufferView": 1,
      "byteOffset": 424224,
      "componentType": 5126,
      "count": 3678,
      "max": [
        0.99500000476837158,
        0.99444776773452759
      ],
      "min": [
        0.004999999888241291,
        0.004999999888241291
      ],
      "type": "VEC2"
    },
    {
      "bufferView": 0,
      "byteOffset": 324144,
      "componentType": 5125,
      "count": 16536,
      "max": [
        3677
      ],
      "min": [
        0
      ],
      "type": "SCALAR"
    },
    {
      "bufferView": 2,
      "byteOffset": 680472,
      "componentType": 5126,
      "count": 5084,
      "max": [
        1163.39794921875,
        -871.826416015625,
        223.56492614746094
      ],
      "min": [
        173.16102600097656,
        -1096.706787109375,
        74.004806518554688
      ],
      "type": "VEC3"
    },
    {
      "bufferView": 2,
      "byteOffset": 741480,
      "componentType": 5126,
      "count": 5084,
      "max": [
        1,
        1,
        1
      ],
      "min": [
        -0.99999988079071045,
        -1,
        -1
      ],
      "type": "VEC3"
    },
    {
      "bufferView": 3,
      "byteOffset": 907296,
      "componentType": 5126,
      "count": 5084,
      "max": [
        1,
        1,
        1,
        1
      ],
      "min": [
        -1,
        -0.99994510412216187,
        -0.99999642372131348,
        1
      ],
      "type": "VEC4"
    },
    {
      "bufferView": 3,
      "byteOffset": 988640,
      "componentType": 5126,
      "count": 5084,
      "max": [
        1,
        1,
        1,
        1
      ],
      "min": [
        1,
        1,
        1,
        1
      ],
      "type": "VEC4"
    },
    {
      "bufferView": 1,
      "byteOffset": 453648,
      "componentType": 5126,
      "count": 5084,
      "max": [
        0.99499994516372681,
        0.93936854600906372
      ],
      "min": [
        0.004999999888241291,
        0.004999999888241291
      ],
      "type": "VEC2"
    },
    {
      "bufferView": 1,
      "byteOffset": 494320,
      "componentType": 5126,
      "count": 5084,
      "max": [
        0.99499994516372681,
        0.93936854600906372
      ],
      "min": [
        0.004999999888241291,
        0.004999999888241291
      ],
      "type": "VEC2"
    },
    {
      "bufferView": 0,
      "byteOffset": 390288,
      "componentType": 5125,
      "count": 22872,
      "max": [
        5083
      ],
      "min": [
        0
      ],
      "type": "SCALAR"
    }
  ],
  "asset": {
    "extras": {
      "author": "kris.dpd (https://sketchfab.com/kris.dpd)",
      "license": "CC-BY-4.0 (http://creativecommons.org/licenses/by/4.0/)",
      "source": "https://sketchfab.com/models/44abc531574a411eacbe3c46f4e5bca5",
      "title": "Yatch"
    },
    "generator": "Sketchfab-3.36.2",
    "version": "2.0"
  },
  "bufferViews": [
    {
      "buffer": 0,
      "byteLength": 481776,
      "byteOffset": 0,
      "name": "floatBufferViews",
      "target": 34963
    },
    {
      "buffer": 0,
      "byteLength": 534992,
      "byteOffset": 481776,
      "byteStride": 8,
      "name": "floatBufferViews",
      "target": 34962
    },
    {
      "buffer": 0,
      "byteLength": 802488,
      "byteOffset": 1016768,
      "byteStride": 12,
      "name": "floatBufferViews",
      "target": 34962
    },
    {
      "buffer": 0,
      "byteLength": 1069984,
      "byteOffset": 1819256,
      "byteStride": 16,
      "name": "floatBufferViews",
      "target": 34962
    }
  ],
  "buffers": [
    {
      "byteLength": 2889240,
      "uri": "scene.bin"
    }
  ],
  "images": [
    {
      "uri": "textures/Object002_mtl_baseColor.jpeg"
    },
    {
      "uri": "textures/Object004_mtl_baseColor.jpeg"
    },
    {
      "uri": "textures/Object001_mtl_baseColor.jpeg"
    },
    {
      "uri": "textures/Object003_mtl_baseColor.jpeg"
    }
  ],
  "materials": [
    {
      "doubleSided": true,
      "emissiveFactor": [
        0,
        0,
        0
      ],
      "name": "Object001_mtl",
      "pbrMetallicRoughness": {
        "baseColorFactor": [
          1,
          1,
          1,
          1
        ],
        "baseColorTexture": {
          "index": 2,
          "texCoord": 0
        },
        "metallicFactor": 0,
        "roughnessFactor": 0.89297135959999996
      }
    },
    {
      "doubleSided": true,
      "emissiveFactor": [
        0,
        0,
        0
      ],
      "name": "Object002_mtl",
      "pbrMetallicRoughness": {
        "baseColorFactor": [
          1,
          1,
          1,
          1
        ],
        "baseColorTexture": {
          "index": 0,
          "texCoord": 0
        },
        "metallicFactor": 0,
        "roughnessFactor": 0.89297135959999996
      }
    },
    {
      "doubleSided": true,
      "emissiveFactor": [
        0,
        0,
        0
      ],
      "name": "Object003_mtl",
      "pbrMetallicRoughness": {
        "baseColorFactor": [
          1,
          1,
          1,
          1
        ],
        "baseColorTexture": {
          "index": 3,
          "texCoord": 0
        },
        "metallicFactor": 0,
        "roughnessFactor": 0.89297135959999996
      }
    },
    {
      "doubleSided": true,
      "emissiveFactor": [
        0,
        0,
        0
      ],
      "name": "Object004_mtl",
      "pbrMetallicRoughness": {
        "baseColorFactor": [
          1,
          1,
          1,
          1
        ],
        "baseColorTexture": {
          "index": 1,
          "texCoord": 0
        },
        "metallicFactor": 0,
        "roughnessFactor": 0.89297135959999996
      }
    }
  ],
  "meshes": [
    {
      "name": "Object001_Object001_mtl_0",
      "primitives": [
        {
          "attributes": {
            "COLOR_0": 3,
            "NORMAL": 1,
            "POSITION": 0,
            "TANGENT": 2,
            "TEXCOORD_0": 4,
            "TEXCOORD_1": 5
          },
          "indices": 6,
          "material": 0,
          "mode": 4
        }
      ]
    },
    {
      "name": "Object002_Object002_mtl_0",
      "primitives": [
        {
          "attributes": {
            "COLOR_0": 10,
            "NORMAL": 8,
            "POSITION": 7,
            "TANGENT": 9,
            "TEXCOORD_0": 11,
            "TEXCOORD_1": 12
          },
          "indices": 13,
          "material": 1,
          "mode": 4
        }
      ]
    },
    {
      "name": "Object003_Object003_mtl_0",
      "primitives": [
        {
          "attributes": {
            "COLOR_0": 17,
            "NORMAL": 15,
            "POSITION": 14,
            "TANGENT": 16,
            "TEXCOORD_0": 18,
            "TEXCOORD_1": 19
          },
          "indices": 20,
          "material": 2,
          "mode": 4
        }
      ]
    },
    {
      "name": "Object004_Object004_mtl_0",
      "primitives": [
        {
          "attributes": {
            "COLOR_0": 24,
            "NORMAL": 22,
            "POSITION": 21,
            "TANGENT": 23,
            "TEXCOORD_0": 25,
            "TEXCOORD_1": 26
          },
          "indices": 27,
          "material": 3,
          "mode": 4
        }
      ]
    }
  ],
  "nodes": [
    {
      "children": [
        1
      ],
      "name": "RootNode (gltf orientation matrix)",
      "rotation": [
        -0.70710678118654746,
        -0,
        -0,
        0.70710678118654757
      ]
    },
    {
      "children": [
        2
      ],
      "name": "RootNode (model correction matrix)"
    },
    {
      "children": [
        3
      ],
      "matrix": [
        1,
        0,
        0,
        0,
        0,
        0,
        1,
        0,
        0,
        -1,
        0,
        0,
        0,
        0,
        0,
        1
      ],
      "name": "Yatch.fbx"
    },
    {
      "children": [
        4,
        7,
        10,
        13
      ],
      "name": "RootNode"
    },
    {
      "children": [
        5
      ],
      "matrix": [
        1,
        0,
        0,
        0,
        0,
        2.2204460492503131e-16,
        -1,
        0,
        0,
        1,
        2.2204460492503131e-16,
        0,
        591.4544677734375,
        -70.559860229492188,
        984.2666015625,
        1
      ],
      "name": "Object001"
    },
    {
      "children": [
        6
      ],
      "matrix": [
        1,
        0,
        -0,
        0,
        0,
        1,
        0,
        0,
        0,
        0,
        1,
        0,
        -591.4544677734375,
        984.2666015625,
        70.559860229492188,
        1
      ],
      "name": ""
    },
    {
      "mesh": 0,
      "name": "Object001_Object001_mtl_0"
    },
    {
      "children": [
        8
      ],
      "matrix": [
        1,
        0,
        0,
        0,
        0,
        2.2204460492503131e-16,
        -1,
        0,
        0,
        1,
        2.2204460492503131e-16,
        0,
        591.4544677734375,
        -70.559860229492188,
        984.2666015625,
        1
      ],
      "name": "Object002"
    },
    {
      "children": [
        9
      ],
      "matrix": [
        1,
        0,
        -0,
        0,
        0,
        1,
        0,
        0,
        0,
        0,
        1,
        0,
        -591.4544677734375,
        984.2666015625,
        70.559860229492188,
        1
      ],
      "name": ""
    },
    {
      "mesh": 1,
      "name": "Object002_Object002_mtl_0"
    },
    {
      "children": [
        11
      ],
      "matrix": [
        1,
        0,
        0,
        0,
        0,
        2.2204460492503131e-16,
        -1,
        0,
        0,
        1,
        2.2204460492503131e-16,
        0,
        591.4544677734375,
        -70.559860229492188,
        984.2666015625,
        1
      ],
      "name": "Object003"
    },
    {
      "children": [
        12
      ],
      "matrix": [
        1,
        0,
        -0,
        0,
        0,
        1,
        0,
        0,
        0,
        0,
        1,
        0,
        -591.4544677734375,
        984.2666015625,
        70.559860229492188,
        1
      ],
      "name": ""
    },
    {
      "mesh": 2,
      "name": "Object003_Object003_mtl_0"
    },
    {
      "children": [
        14
      ],
      "matrix": [
        1,
        0,
        0,
        0,
        0,
        2.2204460492503131e-16,
        -1,
        0,
        0,
        1,
        2.2204460492503131e-16,
        0,
        591.4544677734375,
        -70.559860229492188,
        984.2666015625,
        1
      ],
      "name": "Object004"
    },
    {
      "children": [
        15
      ],
      "matrix": [
        1,
        0,
        -0,
        0,
        0,
        1,
        0,
        0,
        0,
        0,
        1,
        0,
        -591.4544677734375,
        984.2666015625,
        70.559860229492188,
        1
      ],
      "name": ""
    },
    {
      "mesh": 3,
      "name": "Object004_Object004_mtl_0"
    }
  ],
  "samplers": [
    {
      "magFilter": 9729,
      "minFilter": 9987,
      "wrapS": 10497,
      "wrapT": 10497
    }
  ],
  "scene": 0,
  "scenes": [
    {
      "name": "OSG_Scene",
      "nodes": [
        0
      ]
    }
  ],
  "textures": [
    {
      "sampler": 0,
      "source": 0
    },
    {
      "sampler": 0,
      "source": 1
    },
    {
      "sampler": 0,
      "source": 2
    },
    {
      "sampler": 0,
      "source": 3
    }
  ]
}

