{
  "accessors": [
    {
      "bufferView": 1,
      "componentType": 5126,
      "count": 4127,
      "max": [
        0.17986957728862762,
        0.05596286803483963,
        0.84519124031066895
      ],
      "min": [
        0.11452664434909821,
        0,
        0.084696024656295776
      ],
      "type": "VEC3"
    },
    {
      "bufferView": 1,
      "byteOffset": 49524,
      "componentType": 5126,
      "count": 4127,
      "max": [
        0.99996715784072876,
        0.99971336126327515,
        0.9978376030921936
      ],
      "min": [
        -0.99995774030685425,
        -0.99972891807556152,
        -0.99760162830352783
      ],
      "type": "VEC3"
    },
    {
      "bufferView": 0,
      "componentType": 5125,
      "count": 19272,
      "max": [
        4126
      ],
      "min": [
        1
      ],
      "type": "SCALAR"
    },
    {
      "bufferView": 1,
      "byteOffset": 99048,
      "componentType": 5126,
      "count": 2482,
      "max": [
        0.18866464495658875,
        0.013411816209554672,
        0.66611272096633911
      ],
      "min": [
        0.10607019811868668,
        0.010323347523808479,
        0.3243793249130249
      ],
      "type": "VEC3"
    },
    {
      "bufferView": 1,
      "byteOffset": 128832,
      "componentType": 5126,
      "count": 2482,
      "max": [
        0.99940413236618042,
        1,
        0.98831290006637573
      ],
      "min": [
        -0.99940413236618042,
        -1,
        -0.98831284046173096
      ],
      "type": "VEC3"
    },
    {
      "bufferView": 0,
      "byteOffset": 77088,
      "componentType": 5125,
      "count": 14688,
      "max": [
        2481
      ],
      "min": [
        0
      ],
      "type": "SCALAR"
    },
    {
      "bufferView": 1,
      "byteOffset": 158616,
      "componentType": 5126,
      "count": 2691,
      "max": [
        0.1719992607831955,
        0.014221005141735077,
        0.56731283664703369
      ],
      "min": [
        0.1096322238445282,
        0.010885046795010567,
        0.35740917921066284
      ],
      "type": "VEC3"
    },
    {
      "bufferView": 1,
      "byteOffset": 190908,
      "componentType": 5126,
      "count": 2691,
      "max": [
        0.99976509809494019,
        1,
        0.99995332956314087
      ],
      "min": [
        -0.99984759092330933,
        -1,
        -0.99976587295532227
      ],
      "type": "VEC3"
    },
    {
      "bufferView": 0,
      "byteOffset": 135840,
      "componentType": 5125,
      "count": 14904,
      "max": [
        2690
      ],
      "min": [
        0
      ],
      "type": "SCALAR"
    },
    {
      "bufferView": 1,
      "byteOffset": 223200,
      "componentType": 5126,
      "count": 2982,
      "max": [
        0.20536741614341736,
        0.013898350298404694,
        0.10929599404335022
      ],
      "min": [
        0.089367419481277466,
        0.0038983486592769623,
        0.077296018600463867
      ],
      "type": "VEC3"
    },
    {
      "bufferView": 1,
      "byteOffset": 258984,
      "componentType": 5126,
      "count": 2982,
      "max": [
        1,
        1,
        1
      ],
      "min": [
        -1,
        -1,
        -1
      ],
      "type": "VEC3"
    },
    {
      "bufferView": 2,
      "componentType": 5126,
      "count": 2982,
      "max": [
        1,
        1,
        0.9999992847442627,
        1
      ],
      "min": [
        -1,
        -0.064627133309841156,
        -0.99991899728775024,
        -1
      ],
      "type": "VEC4"
    },
    {
      "bufferView": 0,
      "byteOffset": 195456,
      "componentType": 5125,
      "count": 17568,
      "max": [
        2981
      ],
      "min": [
        0
      ],
      "type": "SCALAR"
    },
    {
      "bufferView": 1,
      "byteOffset": 294768,
      "componentType": 5126,
      "count": 1148,
      "max": [
        0.20532575249671936,
        0.016498349606990814,
        0.7047959566116333
      ],
      "min": [
        0.089409083127975464,
        0.00098167732357978821,
        0.098462671041488647
      ],
      "type": "VEC3"
    },
    {
      "bufferView": 1,
      "byteOffset": 308544,
      "componentType": 5126,
      "count": 1148,
      "max": [
        1,
        1,
        0.99995607137680054
      ],
      "min": [
        -1,
        -1,
        -0.99999761581420898
      ],
      "type": "VEC3"
    },
    {
      "bufferView": 0,
      "byteOffset": 265728,
      "componentType": 5125,
      "count": 6864,
      "max": [
        1147
      ],
      "min": [
        0
      ],
      "type": "SCALAR"
    },
    {
      "bufferView": 1,
      "byteOffset": 322320,
      "componentType": 5126,
      "count": 24142,
      "max": [
        0.21682755649089813,
        0.10370410978794098,
        0.86115247011184692
      ],
      "min": [
        0.077907420694828033,
        0.02618858776986599,
        0.74003136157989502
      ],
      "type": "VEC3"
    },
    {
      "bufferView": 1,
      "byteOffset": 612024,
      "componentType": 5126,
      "count": 24142,
      "max": [
        1,
        0.99999970197677612,
        0.99997729063034058
      ],
      "min": [
        -1,
        -0.99986410140991211,
        -0.99992328882217407
      ],
      "type": "VEC3"
    },
    {
      "bufferView": 0,
      "byteOffset": 293184,
      "componentType": 5125,
      "count": 100776,
      "max": [
        24141
      ],
      "min": [
        0
      ],
      "type": "SCALAR"
    },
    {
      "bufferView": 1,
      "byteOffset": 901728,
      "componentType": 5126,
      "count": 3851,
      "max": [
        0.29473483562469482,
        0.11484648287296295,
        0.88354229927062988
      ],
      "min": [
        0,
        0.013898350298404694,
        0
      ],
      "type": "VEC3"
    },
    {
      "bufferView": 1,
      "byteOffset": 947940,
      "componentType": 5126,
      "count": 3851,
      "max": [
        0.99962514638900757,
        1,
        1
      ],
      "min": [
        -0.99962514638900757,
        -1,
        -1
      ],
      "type": "VEC3"
    },
    {
      "bufferView": 2,
      "byteOffset": 47712,
      "componentType": 5126,
      "count": 3851,
      "max": [
        1,
        0.72821521759033203,
        0.9999997615814209,
        1
      ],
      "min": [
        -0.19947643578052521,
        -0.72820770740509033,
        -0.9999997615814209,
        -1
      ],
      "type": "VEC4"
    },
    {
      "bufferView": 0,
      "byteOffset": 696288,
      "componentType": 5125,
      "count": 20184,
      "max": [
        3850
      ],
      "min": [
        0
      ],
      "type": "SCALAR"
    },
    {
      "bufferView": 1,
      "byteOffset": 994152,
      "componentType": 5126,
      "count": 1350,
      "max": [
        0.18838895857334137,
        0.01589835062623024,
        0.69773578643798828
      ],
      "min": [
        0.1060066819190979,
        0.010898349806666374,
        0.31318610906600952
      ],
      "type": "VEC3"
    },
    {
      "bufferView": 1,
      "byteOffset": 1010352,
      "componentType": 5126,
      "count": 1350,
      "max": [
        0.99997627735137939,
        1,
        1
      ],
      "min": [
        -0.99981093406677246,
        -1,
        -1
      ],
      "type": "VEC3"
    },
    {
      "bufferView": 0,
      "byteOffset": 777024,
      "componentType": 5125,
      "count": 6576,
      "max": [
        1349
      ],
      "min": [
        0
      ],
      "type": "SCALAR"
    }
  ],
  "asset": {
    "extras": {
      "author": "Massimiliano Castiglione (https://sketchfab.com/Maxider)",
      "license": "CC-BY-4.0 (http://creativecommons.org/licenses/by/4.0/)",
      "source": "https://sketchfab.com/models/c549f8459d474a73aa52150fe98e332a",
      "title": "Ukulele"
    },
    "generator": "Sketchfab-3.18.7",
    "version": "2.0"
  },
  "bufferViews": [
    {
      "buffer": 0,
      "byteLength": 803328,
      "byteOffset": 0,
      "name": "floatBufferViews",
      "target": 34963
    },
    {
      "buffer": 0,
      "byteLength": 1026552,
      "byteOffset": 803328,
      "byteStride": 12,
      "name": "floatBufferViews",
      "target": 34962
    },
    {
      "buffer": 0,
      "byteLength": 109328,
      "byteOffset": 1829880,
      "byteStride": 16,
      "name": "floatBufferViews",
      "target": 34962
    }
  ],
  "buffers": [
    {
      "byteLength": 1939208,
      "uri": "scene.bin"
    }
  ],
  "materials": [
    {
      "doubleSided": true,
      "emissiveFactor": [
        0,
        0,
        0
      ],
      "name": "material_0",
      "pbrMetallicRoughness": {
        "baseColorFactor": [
          0,
          0,
          0,
          1
        ],
        "metallicFactor": 0,
        "roughnessFactor": 0.59999999999999998
      }
    },
    {
      "doubleSided": true,
      "emissiveFactor": [
        0,
        0,
        0
      ],
      "name": "material_1",
      "pbrMetallicRoughness": {
        "baseColorFactor": [
          1,
          1,
          1,
          1
        ],
        "metallicFactor": 0.77536692110000005,
        "roughnessFactor": 0.28123685249999997
      }
    },
    {
      "doubleSided": true,
      "emissiveFactor": [
        0,
        0,
        0
      ],
      "name": "material_2",
      "pbrMetallicRoughness": {
        "baseColorFactor": [
          1,
          1,
          1,
          1
        ],
        "metallicFactor": 0,
        "roughnessFactor": 0.59999999999999998
      }
    },
    {
      "doubleSided": true,
      "emissiveFactor": [
        0,
        0,
        0
      ],
      "name": "material_3",
      "pbrMetallicRoughness": {
        "baseColorFactor": [
          0.048259345299999999,
          0.011436409,
          0.011436409,
          1
        ],
        "metallicFactor": 0,
        "roughnessFactor": 0.50492666949999998
      }
    },
    {
      "doubleSided": true,
      "emissiveFactor": [
        0,
        0,
        0
      ],
      "name": "material_4",
      "pbrMetallicRoughness": {
        "baseColorFactor": [
          1,
          1,
          1,
          1
        ],
        "metallicFactor": 0,
        "roughnessFactor": 0.60828087759999994
      }
    },
    {
      "doubleSided": true,
      "emissiveFactor": [
        0,
        0,
        0
      ],
      "name": "material_5",
      "pbrMetallicRoughness": {
        "baseColorFactor": [
          0.13388586469284416,
          0.13388586469284416,
          0.13388586469284416,
          1
        ],
        "metallicFactor": 0.43574427960000001,
        "roughnessFactor": 0.30010477700000004
      }
    },
    {
      "doubleSided": true,
      "name": "material_6",
      "pbrMetallicRoughness": {
        "baseColorFactor": [
          0.11210259582936369,
          0.0087101204699494526,
          0.002985359369929452,
          1
        ],
        "metallicFactor": 0.67473799030000003,
        "roughnessFactor": 0.39171912240000001
      }
    },
    {
      "doubleSided": true,
      "emissiveFactor": [
        0,
        0,
        0
      ],
      "name": "material_7",
      "pbrMetallicRoughness": {
        "baseColorFactor": [
          0.034218421399999997,
          0.0098788033000000008,
          0.0098788033000000008,
          1
        ],
        "metallicFactor": 0.0269392481,
        "roughnessFactor": 0.59999999999999998
      }
    }
  ],
  "meshes": [
    {
      "primitives": [
        {
          "attributes": {
            "NORMAL": 1,
            "POSITION": 0
          },
          "indices": 2,
          "material": 0,
          "mode": 4
        }
      ]
    },
    {
      "primitives": [
        {
          "attributes": {
            "NORMAL": 4,
            "POSITION": 3
          },
          "indices": 5,
          "material": 1,
          "mode": 4
        }
      ]
    },
    {
      "primitives": [
        {
          "attributes": {
            "NORMAL": 7,
            "POSITION": 6
          },
          "indices": 8,
          "material": 2,
          "mode": 4
        }
      ]
    },
    {
      "primitives": [
        {
          "attributes": {
            "NORMAL": 10,
            "POSITION": 9,
            "TANGENT": 11
          },
          "indices": 12,
          "material": 3,
          "mode": 4
        }
      ]
    },
    {
      "primitives": [
        {
          "attributes": {
            "NORMAL": 14,
            "POSITION": 13
          },
          "indices": 15,
          "material": 4,
          "mode": 4
        }
      ]
    },
    {
      "primitives": [
        {
          "attributes": {
            "NORMAL": 17,
            "POSITION": 16
          },
          "indices": 18,
          "material": 5,
          "mode": 4
        }
      ]
    },
    {
      "primitives": [
        {
          "attributes": {
            "NORMAL": 20,
            "POSITION": 19,
            "TANGENT": 21
          },
          "indices": 22,
          "material": 6,
          "mode": 4
        }
      ]
    },
    {
      "primitives": [
        {
          "attributes": {
            "NORMAL": 24,
            "POSITION": 23
          },
          "indices": 25,
          "material": 7,
          "mode": 4
        }
      ]
    }
  ],
  "nodes": [
    {
      "children": [
        1
      ],
      "name": "RootNode (gltf orientation matrix)",
      "rotation": [
        -0.70710678118654746,
        -0,
        -0,
        0.70710678118654757
      ]
    },
    {
      "children": [
        2
      ],
      "matrix": [
        0,
        1,
        0,
        0,
        0,
        0,
        -1,
        0,
        -1,
        0,
        0,
        0,
        0.016475686803460121,
        0.030473776161670685,
        0.046949461102485657,
        1
      ],
      "name": "RootNode (model correction matrix)"
    },
    {
      "children": [
        3
      ],
      "matrix": [
        1,
        0,
        0,
        0,
        0,
        1,
        0,
        0,
        0,
        0,
        1,
        0,
        -0.14736741781234741,
        -0.033898349851369858,
        -0.42529600858688354,
        1
      ],
      "name": "cbe9de456a444eef8b0eda385f33f225.lwo.cleaner.materialmerger.gles"
    },
    {
      "children": [
        4
      ],
      "name": "/sketchfab-data/processing/26592337b5884fd78f64d6e72df4d4db/preprocess/cbe9de456a444eef8b0eda385f33f225.lwo"
    },
    {
      "children": [
        5,
        6,
        7,
        8,
        9,
        10,
        11,
        12
      ],
      "name": "Object #0"
    },
    {
      "mesh": 0,
      "name": ""
    },
    {
      "mesh": 1,
      "name": ""
    },
    {
      "mesh": 2,
      "name": ""
    },
    {
      "mesh": 3,
      "name": ""
    },
    {
      "mesh": 4,
      "name": ""
    },
    {
      "mesh": 5,
      "name": ""
    },
    {
      "mesh": 6,
      "name": ""
    },
    {
      "mesh": 7,
      "name": ""
    }
  ],
  "scene": 0,
  "scenes": [
    {
      "name": "OSG_Scene",
      "nodes": [
        0
      ]
    }
  ]
}

